<?xml version="1.0" encoding="UTF-8"?>
<svg preserveAspectRatio="xMidYMid slice" width="300px" height="60px" xmlns="http://www.w3.org/2000/svg" viewBox="0 0 546.19 108.61">
  <defs>
    <style>.cls-1{fill:#011b33;}</style>
  </defs>
  <title>Air Peace Stack Blue</title>
  <g id="Layer_2" data-name="Layer 2">
    <g id="Layer_1-2" data-name="Layer 1">
      <path class="cls-1" d="M293.88,92.8a2.31,2.31,0,0,1,2.21-2.29,1.55,1.55,0,0,1,1.56,1.69,2.24,2.24,0,0,1-2.19,2.26A1.54,1.54,0,0,1,293.88,92.8Z"></path>
      <path class="cls-1" d="M301.15,92.8a2.31,2.31,0,0,1,2.21-2.29,1.55,1.55,0,0,1,1.56,1.69,2.25,2.25,0,0,1-2.19,2.26A1.54,1.54,0,0,1,301.15,92.8Z"></path>
      <path class="cls-1" d="M308.42,92.8a2.31,2.31,0,0,1,2.21-2.29,1.55,1.55,0,0,1,1.56,1.69A2.25,2.25,0,0,1,310,94.46,1.54,1.54,0,0,1,308.42,92.8Z"></path>
      <path class="cls-1" d="M313.25,99.07l.9-2.08a2,2,0,0,0,1,.24c1.12,0,2.21-1,2.94-2.43l.4-.79-2.27-13H319l.82,6.62c.15,1.18.27,2.7.34,3.94h.1c.58-1.23,1.24-2.71,1.84-3.94L325.4,81h2.79L320.8,94.83c-1.61,2.86-3.24,4.7-5.86,4.7A4.13,4.13,0,0,1,313.25,99.07Z"></path>
      <path class="cls-1" d="M328.08,89.12c0-5,3.62-8.42,7.22-8.42,2.95,0,4.9,2.07,4.9,5.34,0,5-3.62,8.42-7.23,8.42C330,94.46,328.08,92.39,328.08,89.12Zm9.22-3c0-2-.8-3.11-2.31-3.11-2.08,0-4,2.64-4,6,0,2,.8,3.11,2.3,3.11C335.37,92.13,337.3,89.49,337.3,86.14Z"></path>
      <path class="cls-1" d="M352.4,94.14h-2.34l.13-1.88h-.11a7,7,0,0,1-4.4,2.2c-2.19,0-3.11-1.21-3.11-3.32a8.8,8.8,0,0,1,.21-1.84L344.44,81h2.86l-1.59,7.92a6.61,6.61,0,0,0-.21,1.39A1.46,1.46,0,0,0,347.13,92c.89,0,1.91-.63,3.24-2l1.76-9H355Z"></path>
      <path class="cls-1" d="M359,81h2.34l-.24,2.53h.11c1-1.62,2.48-2.85,4-2.85a3,3,0,0,1,1.31.24l-1,2.52a2.69,2.69,0,0,0-1.22-.22c-1.23,0-2.49,1-3.57,3l-1.55,7.93h-2.86Z"></path>
      <path class="cls-1" d="M374.13,95.43l-.75,3.91h-2.86L374.2,81h2.34l-.07,1.61h.08a6.87,6.87,0,0,1,4.26-1.93c2.31,0,3.74,1.71,3.74,4.79,0,5-3.42,9-7,9a3.37,3.37,0,0,1-2.9-1.72h-.05ZM376.28,85l-1.12,5.59a2.43,2.43,0,0,0,2.18,1.55c2.21,0,4.25-2.85,4.25-6.23,0-1.91-.76-2.81-1.95-2.81A4.57,4.57,0,0,0,376.28,85Z"></path>
      <path class="cls-1" d="M393.67,80.7c3.05,0,4.18,2.13,4.18,4.84a8,8,0,0,1-.57,2.78h-8c-.27,2.77,1.25,3.94,3.25,3.94a4.94,4.94,0,0,0,2.67-1l1.05,1.83a7.77,7.77,0,0,1-4.48,1.39c-3.13,0-5.26-2-5.26-5.55C386.52,84,390.22,80.7,393.67,80.7Zm1.67,5.8a5,5,0,0,0,.13-1.15c0-1.27-.54-2.42-2.14-2.42s-3.15,1.33-3.78,3.57Z"></path>
      <path class="cls-1" d="M407.52,86a3.46,3.46,0,0,0,.11-.89c0-1.56-.72-2.12-2.06-2.12a7.18,7.18,0,0,0-3.43,1.09l-.9-2a11.22,11.22,0,0,1,4.93-1.34c2.7,0,4.3,1.26,4.3,4.1a8.86,8.86,0,0,1-.22,1.85l-1.48,7.49h-2.33l0-1.43h-.09a6.25,6.25,0,0,1-4,1.75,3.12,3.12,0,0,1-3.28-3.23C399.13,87.44,402.7,86.1,407.52,86Zm-5.59,4.68c0,1.06.73,1.58,1.76,1.58a4.54,4.54,0,0,0,2.88-1.43l.61-3C403.75,87.86,401.93,88.91,401.93,90.65Z"></path>
      <path class="cls-1" d="M412.87,89.12c0-4.7,3.44-8.42,7.53-8.42a4.42,4.42,0,0,1,3.46,1.61L422.23,84a2.47,2.47,0,0,0-2-1c-2.36,0-4.42,2.73-4.42,6,0,2,.88,3.11,2.65,3.11a4,4,0,0,0,2.48-1l1.23,1.81a6.94,6.94,0,0,1-4.31,1.52C415,94.46,412.87,92.52,412.87,89.12Z"></path>
      <path class="cls-1" d="M431.49,80.7c3,0,4.18,2.13,4.18,4.84a8,8,0,0,1-.58,2.78h-8c-.27,2.77,1.26,3.94,3.25,3.94a4.94,4.94,0,0,0,2.67-1l1.05,1.83a7.74,7.74,0,0,1-4.48,1.39c-3.13,0-5.25-2-5.25-5.55C424.34,84,428,80.7,431.49,80.7Zm1.66,5.8a5,5,0,0,0,.13-1.15c0-1.27-.54-2.42-2.14-2.42s-3.15,1.33-3.78,3.57Z"></path>
      <path class="cls-1" d="M435.84,97.21a4.42,4.42,0,0,0,3.24-3.07l.3-2.33.74,2a1.78,1.78,0,0,1-1,.42,1.6,1.6,0,0,1-1.76-1.61,2,2,0,0,1,2.09-2.08c1.19,0,1.85.83,1.85,2.18a6.28,6.28,0,0,1-5.07,6.16Z"></path>
      <path class="cls-1" d="M450.14,89.12c0-5,3.63-8.42,7.23-8.42,2.95,0,4.89,2.07,4.89,5.34,0,5-3.62,8.42-7.22,8.42C452.09,94.46,450.14,92.39,450.14,89.12Zm9.23-3c0-2-.8-3.11-2.31-3.11-2.09,0-4,2.64-4,6,0,2,.8,3.11,2.31,3.11C457.43,92.13,459.37,89.49,459.37,86.14Z"></path>
      <path class="cls-1" d="M474.46,94.14h-2.34l.13-1.88h-.1a7,7,0,0,1-4.41,2.2c-2.19,0-3.11-1.21-3.11-3.32a8.22,8.22,0,0,1,.22-1.84L466.5,81h2.87l-1.6,7.92a7.34,7.34,0,0,0-.21,1.39A1.47,1.47,0,0,0,469.2,92c.88,0,1.91-.63,3.23-2l1.77-9h2.86Z"></path>
      <path class="cls-1" d="M481.05,81h2.34l-.23,2.53h.1c1-1.62,2.48-2.85,4-2.85a3,3,0,0,1,1.32.24l-1,2.52a2.72,2.72,0,0,0-1.22-.22c-1.23,0-2.49,1-3.57,3l-1.55,7.93h-2.87Z"></path>
      <path class="cls-1" d="M492.49,96.82c0-1.62,1.47-2.69,2.95-3.35v-.09a2.2,2.2,0,0,1-.79-1.75,3.1,3.1,0,0,1,1.7-2.49V89a3.81,3.81,0,0,1-1.39-3,5.38,5.38,0,0,1,5.54-5.39,4.28,4.28,0,0,1,1.71.32h4.67l-.41,2.17h-2.28a3.08,3.08,0,0,1,.45,1.6c0,3.06-2.33,5.2-5.58,5.2a3.93,3.93,0,0,1-1.29-.2A1.65,1.65,0,0,0,497,91c0,.78.43,1.09,2.33,1.3,3.61.45,4.72,1.35,4.72,3,0,3.06-3.33,4.59-6.59,4.59C495.39,100,492.49,99.32,492.49,96.82Zm8.76-.75c0-1-1.07-1.37-2.8-1.57-.42-.06-1-.16-1.57-.3-.86.44-1.91,1.19-1.91,2.1,0,1.24,1.09,1.8,2.8,1.8C499.77,98.1,501.25,97.24,501.25,96.07Zm.91-11.23c0-1.32-.67-2.13-1.76-2.13-1.64,0-2.8,1.67-2.8,3.33,0,1.32.67,2.13,1.76,2.13C501,88.17,502.16,86.5,502.16,84.84Z"></path>
      <path class="cls-1" d="M506.9,89.12c0-5,3.62-8.42,7.23-8.42,3,0,4.89,2.07,4.89,5.34,0,5-3.62,8.42-7.22,8.42C508.85,94.46,506.9,92.39,506.9,89.12Zm9.22-3c0-2-.8-3.11-2.3-3.11-2.09,0-4,2.64-4,6,0,2,.8,3.11,2.31,3.11C514.19,92.13,516.12,89.49,516.12,86.14Z"></path>
      <path class="cls-1" d="M528.83,86a3.12,3.12,0,0,0,.12-.89c0-1.56-.73-2.12-2.06-2.12a7.18,7.18,0,0,0-3.43,1.09l-.9-2a11.18,11.18,0,0,1,4.93-1.34c2.7,0,4.29,1.26,4.29,4.1a8.82,8.82,0,0,1-.21,1.85l-1.49,7.49h-2.32l0-1.43h-.09a6.25,6.25,0,0,1-4,1.75,3.13,3.13,0,0,1-3.29-3.23C520.44,87.44,524,86.1,528.83,86Zm-5.59,4.68c0,1.06.74,1.58,1.77,1.58a4.5,4.5,0,0,0,2.87-1.43l.62-3C525.07,87.86,523.24,88.91,523.24,90.65Z"></path>
      <path class="cls-1" d="M537.68,75.27h2.87l-3.79,18.87H533.9Z"></path>
      <polygon class="cls-1" points="543.15 29.22 546.19 18.6 507.08 18.6 500.78 29.22 543.15 29.22"></polygon>
      <polygon class="cls-1" points="538.71 44.76 542.02 33.19 502.9 33.19 494.7 61.83 533.82 61.83 536.98 50.78 514.97 50.78 516.7 44.76 538.71 44.76"></polygon>
      <path class="cls-1" d="M494.39,29.22l6.29-10.6h-32a13.82,13.82,0,0,0-13.3,10l-.17.59Z"></path>
      <path class="cls-1" d="M454.11,33.19,449.86,48.1a10.77,10.77,0,0,0,10.36,13.73h24.84l3.16-11H464.54l5-17.59Z"></path>
      <polygon class="cls-1" points="409.65 33.19 385.02 61.83 403.81 61.83 418.49 44.76 427.93 44.76 431.93 61.83 448.67 61.83 441.95 33.19 409.65 33.19"></polygon>
      <polygon class="cls-1" points="441.02 29.22 438.53 18.61 438.54 18.6 438.53 18.6 422.21 18.6 422.2 18.6 413.06 29.22 441.02 29.22"></polygon>
      <polygon class="cls-1" points="391.32 44.76 394.64 33.19 355.52 33.19 352.21 44.76 352.21 44.76 347.32 61.83 364.43 61.83 386.44 61.83 389.6 50.78 367.59 50.78 369.32 44.76 391.32 44.76"></polygon>
      <polygon class="cls-1" points="395.77 29.22 398.81 18.6 376.81 18.6 359.7 18.6 353.4 29.22 395.77 29.22"></polygon>
      <path class="cls-1" d="M302.65,33.19h0l-8.2,28.64h14.73l4.89-17.07h20a16.87,16.87,0,0,0,16-11.57Z"></path>
      <path class="cls-1" d="M351.21,29.22a8.92,8.92,0,0,0-8.75-10.62H306.82l-6.29,10.62Z"></path>
      <path class="cls-1" d="M259.85,29.22a8.93,8.93,0,0,0-8.76-10.62H215.26L209,29.22Z"></path>
      <path class="cls-1" d="M258.72,33.19H211.08l-1.86,6.5-6.34,22.14h14.74l4.88-17.07h16.71l-4.88,17.07h14.73l3.28-11.47a7.87,7.87,0,0,0-1.78-7.53A16.83,16.83,0,0,0,258.72,33.19Z"></path>
      <polygon class="cls-1" points="203.05 29.22 206.07 18.66 190.41 18.66 187.39 29.22 203.05 29.22"></polygon>
      <polygon class="cls-1" points="172.81 29.22 170.41 18.66 154.08 18.66 144.77 29.22 172.81 29.22"></polygon>
      <polygon class="cls-1" points="186.25 33.19 179.25 57.66 173.7 33.19 141.28 33.19 131.91 43.83 159.75 43.83 164.41 61.83 193.71 61.83 201.91 33.19 186.25 33.19"></polygon>
      <path class="cls-1" d="M112,45.59a19.32,19.32,0,0,0-.34-2.52c-.12-.57-.23-.92-.37-1.57A44.39,44.39,0,0,0,97.46,17.25a6,6,0,0,0-.66-.51c-1.56-1.39-3.18-2.73-4.85-4A61,61,0,0,0,65.38.82,55.69,55.69,0,0,0,48,.56a67.27,67.27,0,0,0-15.68,4.3,45.37,45.37,0,0,0-18.9,13.77l-.38.48a1.53,1.53,0,0,1-.13.16,29.85,29.85,0,0,0-1.93,2.58.2.2,0,0,1-.1.07c-1.48,2.15-3,4.65-3.15,4.92A56.49,56.49,0,0,0,.31,48.73,46,46,0,0,0,5.9,76.65c.29.52.58,1,.91,1.54a5.85,5.85,0,0,0,1,1.45A48.45,48.45,0,0,1,2.24,58.12l0,0,0,0h0v-.61c0-.38,0-.76,0-1.13A46.53,46.53,0,0,1,4.1,44.74,51.26,51.26,0,0,1,10,31.88h0s.18-.29.51-.79A61,61,0,0,1,15,25.18a1,1,0,0,1,.14-.15c.75-.88,1.56-1.78,2.43-2.67l.05-.05c.7-.7,1.42-1.4,2.18-2.06v0A47.85,47.85,0,0,1,28,14.08,53.73,53.73,0,0,1,48.77,7.23a52.63,52.63,0,0,1,16.38.46,51.47,51.47,0,0,1,18.12,7.14A63.53,63.53,0,0,1,97,26.63a1.82,1.82,0,0,0,.25.24c7.33,9,9.35,22.33,9.43,22.92.14,2.14.2,4.28.17,6.44,0,.62,0,1.25,0,1.88a61.48,61.48,0,0,1-2.33,14.82A44.81,44.81,0,0,1,87.61,97.07a66,66,0,0,1-21,9.93c-2,.57-4,1.06-6.05,1.6a5.39,5.39,0,0,0,.57,0c1.51-.26,3-.51,4.52-.83a69.6,69.6,0,0,0,18.92-6.84A52.85,52.85,0,0,0,100.9,87.44c7.15-9,10.46-19.35,11.17-30.67h0A70.92,70.92,0,0,0,112,45.59Z"></path>
      <path class="cls-1" d="M135.9,16.74a1,1,0,0,0-1.28-1l-3.67.54a95.54,95.54,0,0,0-15.11,3.45,77.27,77.27,0,0,0-7.6,2.85c-.14.06-.35.28-.54.23l-1.53.71-.13.07c-1.14.52-2.25,1.12-3.39,1.66A37.18,37.18,0,0,0,89.71,35.58,98.44,98.44,0,0,0,79.62,51c-.94,1.73-1.84,3.47-2.77,5.21-1.2,2.56-4.3,1.32-5.64.63a3.5,3.5,0,0,1-.62-.35h0c-.29-.19-.57-.39-.86-.55a42.62,42.62,0,0,0-14.35-4.89A41.92,41.92,0,0,0,37.9,52.35c-3,.86-6.07,1.8-9,2.86-.63.23-2.65,1-6.85,2.65l-.51.21-.2.08c-.29.12-.59.24-.87.37a.51.51,0,0,1-.41.18l-1,.48h0c-1,.49-2,1-3,1.5C13.7,62,12.09,63,12,63.07A28.73,28.73,0,0,0,7.21,67c1.92-.28,3.71-.55,5.51-.79a132.56,132.56,0,0,1,22.07-1.5A43.25,43.25,0,0,1,47,66.59a16.92,16.92,0,0,1,7.26,4.35c.35.38.33.53-.19.66-1.14.29-2.25.65-3.39.93-3.47.86-7,1.5-10.43,2.53A13.25,13.25,0,0,0,36,76.92c-1.52,1.13-1.57,1.39-.3,2.88a10.43,10.43,0,0,0,4.73,2.8,66.1,66.1,0,0,0,13.42,2.76c.42,0,.46-.07.33-.42a7.53,7.53,0,0,1-.48-2.39,2.94,2.94,0,0,1,2.15-3.13,16,16,0,0,1,3.62-.76c2.64-.27,5.3-.23,7.94-.55a31.24,31.24,0,0,0,10.11-2.78,33.33,33.33,0,0,0,9.26-7.21q3.6-3.77,7.15-7.57c.37-.4.65-.53,1.16-.21s1.3.66,1.94,1c.31.17.47.19.47-.25a16.52,16.52,0,0,0-.23-3.37,5.25,5.25,0,0,0-2-3.55,4,4,0,0,0-3.62-.67c.07-.23.11-.4.16-.56a47.92,47.92,0,0,1,3.44-7.67,23.41,23.41,0,0,1,5.55-6.7,1.42,1.42,0,0,1,1.08-.36,2.81,2.81,0,0,0,2.63-1.35c.32-.49.45-1.05.74-1.6.86,1.58,2.33,1.89,3.87,1.93a3.11,3.11,0,0,0,3.25-2.64c1.5.94,2.18.86,2.88-.44.29-.55.57-.86,1.23-.77a1.25,1.25,0,0,0,.85-.31,2.9,2.9,0,0,0,1.07-1.63c.11-.35.21-.4.54-.21a1.87,1.87,0,0,0,2,0,3.66,3.66,0,0,0,1.23-1.36c.16-.28.28-.41.66-.33A1.78,1.78,0,0,0,125.28,28a.76.76,0,0,1,.56-.63,2.52,2.52,0,0,0,1.84-2.74,7,7,0,0,0-.08-.92c0-.17,0-.33.18-.34a1.34,1.34,0,0,0,.59-.06,1.16,1.16,0,0,1,0-.18l.09.12a1.12,1.12,0,0,0,.54-.78h0s0,0,0-.06a.5.5,0,0,1,0-.12h0a3.54,3.54,0,0,0-.23-1.6c1.05.16,2,.33,2.92.44a2.75,2.75,0,0,0,2.38-.76A7.48,7.48,0,0,0,135.73,18,2.54,2.54,0,0,0,135.9,16.74Z"></path>
    </g>
  </g>
</svg>
